<svg xmlns:xlink="http://www.w3.org/1999/xlink" xmlns="http://www.w3.org/2000/svg" width="814" height="630" viewBox="0 0 814 630"><defs><path id="7lbea" d="M1501.52 178.4c106.74-50.45 207.47-50.6 291.7-12.73 84.43 37.57 152.35 113.17 198.48 207.12 44.27 94.88 44.23 196.8 8.07 279.24-36.66 83.67-97.67 146.75-180.8 191.77-44.03 22.67-90.32 38.2-149.15 47.73-58.06 9.4-128.68 12.8-203.5 7.95-148.47-9.32-314.87-53.08-349.96-151.79-19.89-49.01-7.4-105.2 17.32-161.74 25.13-56.62 62.5-113.6 101.74-166.12 39.64-52.59 81.15-100.71 123.89-141.52 43.14-40.9 87.5-74.48 142.21-99.9z"/><linearGradient id="7lbeb" x1="1477.97" x2="1654.51" y1="901.68" y2="138.74" gradientUnits="userSpaceOnUse"><stop offset="0" stop-color="#ff8f5a"/><stop offset=".99" stop-color="#ff2f96"/><stop offset="1" stop-color="#ff2f96"/></linearGradient></defs><g clip-path="url(#clip-2)" transform="translate(-1106 -138)"><use fill="#6055c4" xlink:href="#7lbea"/><use fill="url(#7lbeb)" xlink:href="#7lbea"/></g></svg>